<svg width="94" height="31" viewBox="0 0 94 31" fill="none" xmlns="http://www.w3.org/2000/svg">
  <g clip-path="url(#logo)">
    <path d="M0 11.3882V19.3696C0 20.0693 0.394587 20.7081 1.02043 21.021L2.76923 21.8954V12.7728L0 11.3882Z" fill="#FF9800"/>
    <path d="M4.61538 13.6959V22.8185L7.38462 24.2031V15.0805L4.61538 13.6959Z" fill="#FF9800"/>
    <path fill-rule="evenodd" clip-rule="evenodd" d="M8.30769 6.20312C8.02477 6.20312 7.74182 6.26768 7.48197 6.39784L5.89183 7.19291L8.30769 8.40264L10.7236 7.19291L9.13341 6.39784C8.87357 6.26768 8.59062 6.20312 8.30769 6.20312ZM3.82752 8.22596L0.814904 9.73137L3.23077 10.9411L6.24339 9.43389L3.82752 8.22596ZM12.7879 8.22596L10.372 9.43389L13.3846 10.9411L15.8005 9.73137L12.7879 8.22596ZM8.30769 10.4651L5.29507 11.9724L8.30769 13.4796L11.3203 11.9724L8.30769 10.4651Z" fill="#332941"/>
    <path d="M12 13.6959L9.23077 15.0805V24.2031L12 22.8185V13.6959Z" fill="#864AF9"/>
    <path d="M16.6154 11.3882L13.8462 12.7728V21.8954L15.595 21.021C16.2208 20.7081 16.6154 20.0684 16.6154 19.3696V11.3882Z" fill="#864AF9"/>
    <path d="M90.7074 16.396V23.2335C90.7074 23.6376 90.4488 23.8962 90.0285 23.8962C89.6244 23.8962 89.3658 23.6376 89.3658 23.2335V10.7061C89.3658 10.4313 89.3011 10.2212 89.1233 10.0434C88.8323 9.7524 88.8485 9.39679 89.1556 9.12199C89.4789 8.8472 89.8184 8.8472 90.0932 9.18665L90.3195 9.46144C90.6104 9.8009 90.7074 10.205 90.7074 10.7061V15.2644L92.9866 15.216C93.326 15.216 93.5523 15.4261 93.5523 15.7655C93.5523 16.105 93.326 16.3475 92.9866 16.3475L90.7074 16.396ZM84.5165 15.9595L87.2806 18.3842C87.5554 18.6266 87.5877 18.9823 87.3452 19.2732C87.1189 19.5642 86.7633 19.5965 86.4885 19.354L83.6759 16.8809C82.8354 17.7376 81.8978 18.6105 80.8956 19.4187C80.5885 19.645 80.2167 19.5965 79.9743 19.3055C79.7318 19.0146 79.7803 18.6751 80.0874 18.4488C82.3504 16.7031 84.3063 14.3269 85.0176 13.2277L82.1726 13.3571C81.9625 13.3732 81.72 13.3732 81.4614 13.3086L81.0411 13.1954C80.7178 13.1146 80.5724 12.8236 80.6693 12.4842C80.7502 12.1609 81.025 12.0154 81.3482 12.0962L81.6715 12.1771C81.817 12.2094 81.9787 12.2255 82.1565 12.2255L85.7126 12.0639C86.5208 12.0316 86.8926 12.565 86.5208 13.2116C86.0844 14.0198 85.3893 14.9573 84.5165 15.9595Z" fill="#332941"/>
    <path d="M71.1825 21.3099C71.1825 19.839 72.4433 18.4165 74.4477 18.4165C76.4521 18.4165 77.7129 19.839 77.7129 21.3099C77.7129 22.7809 76.4359 24.2033 74.4477 24.2033C72.4595 24.2033 71.1825 22.7809 71.1825 21.3099ZM77.7775 14.634V18.1579C77.7775 18.562 77.5189 18.8206 77.0986 18.8206C76.6945 18.8206 76.4359 18.562 76.4359 18.1579V10.7061C76.4359 10.4313 76.3713 10.2212 76.1934 10.0434C75.9025 9.7524 75.9187 9.39679 76.2258 9.12199C76.5491 8.8472 76.8885 8.8472 77.1633 9.18665L77.3896 9.46144C77.6806 9.8009 77.7775 10.205 77.7775 10.7061V13.5025L80.0567 13.454C80.3962 13.454 80.6225 13.6642 80.6225 14.0036C80.6225 14.3431 80.3962 14.5855 80.0567 14.5855L77.7775 14.634ZM71.5381 13.0499L74.577 16.1535C74.8518 16.4444 74.7548 16.8162 74.4639 17.0425C74.1244 17.3173 73.8819 17.2365 73.5587 16.9132L70.9239 14.2299C70.3096 15.216 69.4691 16.2181 68.4669 17.1557C68.1759 17.4143 67.8688 17.4305 67.5617 17.1718C67.2707 16.9294 67.303 16.5414 67.5455 16.299C69.3883 14.4401 70.5036 12.9529 70.6652 11.4658C70.6814 11.3688 70.6652 11.288 70.6167 11.1587C70.4551 10.7708 70.5198 10.4475 70.8107 10.2858C71.1987 10.108 71.5219 10.1242 71.7321 10.4475C71.9099 10.7384 71.9745 11.0779 71.9584 11.4012C71.9422 11.9023 71.7806 12.468 71.5381 13.0499ZM72.4918 21.3099C72.4918 22.2475 73.2515 23.0718 74.4477 23.0718C75.6439 23.0718 76.4036 22.2475 76.4036 21.3099C76.4036 20.3724 75.6439 19.548 74.4477 19.548C73.2515 19.548 72.4918 20.3724 72.4918 21.3099Z" fill="#332941"/>
    <path d="M62.2779 13.8907L66.3675 16.4446C66.6908 16.6386 66.7555 16.9781 66.5615 17.2852C66.3513 17.6085 65.9957 17.6893 65.6724 17.4953L61.5344 14.9252C60.7423 15.8789 59.5946 16.8164 58.0267 17.657C57.6872 17.8348 57.3316 17.7378 57.1215 17.4145C56.9114 17.0751 56.9922 16.7518 57.3316 16.574C60.322 14.9575 61.5182 13.1148 61.6637 11.8055C61.6798 11.7085 61.6798 11.6277 61.6798 11.5468C61.6313 11.0458 61.696 10.8518 61.987 10.7225C62.3587 10.5608 62.7305 10.674 62.8598 10.9973C62.973 11.2721 63.0053 11.5307 62.973 11.8055C62.9083 12.4682 62.682 13.1794 62.2779 13.8907ZM55.2949 21.3101C55.2949 20.9707 55.5051 20.7444 55.8445 20.7282L68.1779 20.4696C68.5174 20.4534 68.7598 20.6797 68.776 21.0353C68.776 21.3748 68.5659 21.6011 68.2264 21.6172L55.893 21.8597C55.5536 21.8759 55.3111 21.6496 55.2949 21.3101Z" fill="#332941"/>
    <path d="M46.9705 18.8688L43.7538 18.9334C43.4305 18.9496 43.188 18.7233 43.1719 18.3839C43.1719 18.0606 43.382 17.8343 43.7053 17.8181L56.0549 17.5595C56.3943 17.5433 56.6368 17.7696 56.6529 18.1091C56.6529 18.4485 56.4428 18.6748 56.1034 18.691L52.9028 18.7556V23.314C52.9028 23.7181 52.6442 23.9767 52.2239 23.9767C51.8198 23.9767 51.5612 23.7181 51.5612 23.314V18.788L48.3121 18.8526V23.314C48.3121 23.7181 48.0535 23.9767 47.6332 23.9767C47.2291 23.9767 46.9705 23.7181 46.9705 23.314V18.8688ZM47.4069 14.7792L53.5494 14.6499C53.905 14.6499 54.1475 14.86 54.1636 15.2156C54.1636 15.5713 53.9535 15.8137 53.5979 15.8137L47.0028 15.9592C46.4209 15.9754 46.033 15.5874 46.033 15.0055V10.8674C46.033 10.4633 46.3078 10.1724 46.7119 10.1724H46.728C47.1321 10.1724 47.4069 10.431 47.4069 10.8351V14.7792Z" fill="#332941"/>
    <path d="M31.0332 14.0521C31.0332 12.0801 32.4718 10.7223 34.4277 10.7223C36.3836 10.7223 37.8061 12.0801 37.8061 14.0521C37.8061 16.0565 36.3836 17.4143 34.4277 17.4143C32.4718 17.4143 31.0332 16.0565 31.0332 14.0521ZM40.8611 14.4886L38.6466 14.5209C38.3072 14.5209 38.0809 14.3108 38.0809 13.9713C38.0809 13.6318 38.3072 13.3894 38.6466 13.3894L40.8611 13.3571V10.7061C40.8611 10.4313 40.7965 10.2212 40.6187 10.0434C40.3277 9.7524 40.3439 9.39679 40.651 9.12199C40.9743 8.8472 41.3137 8.8472 41.5885 9.18665L41.8148 9.46144C42.1058 9.8009 42.2028 10.205 42.2028 10.7061V17.4143C42.2028 17.8184 41.9441 18.077 41.5239 18.077C41.1198 18.077 40.8611 17.8184 40.8611 17.4143V14.4886ZM34.4277 16.2666C35.6562 16.2666 36.4806 15.3453 36.4806 14.0521C36.4806 12.7913 35.6562 11.8699 34.4277 11.8699C33.1992 11.8699 32.3748 12.7913 32.3748 14.0521C32.3748 15.3453 33.1992 16.2666 34.4277 16.2666ZM40.8773 19.9359L34.9773 20.0976C34.654 20.1138 34.4277 19.9198 34.4116 19.5803C34.3954 19.2409 34.6055 19.0146 34.945 18.9984L41.2814 18.8044C41.8472 18.7883 42.2189 19.1601 42.2189 19.7258V23.4113C42.2189 23.7992 41.9603 24.074 41.54 24.074C41.1521 24.074 40.8773 23.7992 40.8773 23.4113V19.9359Z" fill="#3B3486"/>
    <path d="M24.2789 13.2441L21.046 13.3572C20.7874 13.3734 20.5611 13.3572 20.3995 13.3249L19.8499 13.1956C19.5266 13.0986 19.365 12.8238 19.4619 12.4844C19.5428 12.1611 19.8337 11.9833 20.157 12.0641L20.7066 12.1934C20.8521 12.2257 21.0137 12.2419 21.143 12.2419L25.0063 12.0803C25.6044 12.0479 25.9277 12.4359 25.766 12.9693C25.0386 15.2 22.8403 18.0449 20.1732 20.1786C19.8499 20.4211 19.5266 20.3564 19.268 20.0493C19.0255 19.7583 19.074 19.4189 19.3973 19.1764C21.3532 17.7216 23.6485 15.006 24.2789 13.2441ZM28.7403 23.2337V10.7063C28.7403 10.4153 28.6595 10.2214 28.4978 10.0274C28.223 9.7041 28.223 9.38082 28.4978 9.12219C28.8373 8.83123 29.1929 8.89589 29.4192 9.15451L29.694 9.46164C29.9849 9.80109 30.0819 10.2052 30.0819 10.7063V23.2337C30.0819 23.6378 29.8233 23.8964 29.403 23.8964C28.9989 23.8964 28.7403 23.6378 28.7403 23.2337Z" fill="#3B3486"/>
  </g>
  <defs>
    <clipPath id="logo">
      <rect width="93.55" height="30" fill="white" transform="translate(0 0.203125)"/>
    </clipPath>
  </defs>
</svg>
