<svg width="94" height="30" viewBox="0 0 94 30" fill="none" xmlns="http://www.w3.org/2000/svg">
  <g clip-path="url(#logo)">
    <path d="M0 11.1851V19.1665C0 19.8662 0.394587 20.505 1.02043 20.8179L2.76923 21.6923V12.5697L0 11.1851Z" fill="#F8E559"/>
    <path d="M4.61538 13.4928V22.6154L7.38462 24V14.8774L4.61538 13.4928Z" fill="#F8E559"/>
    <path fill-rule="evenodd" clip-rule="evenodd" d="M8.30769 6C8.02477 6 7.74182 6.06456 7.48197 6.19471L5.89183 6.98978L8.30769 8.19952L10.7236 6.98978L9.13341 6.19471C8.87357 6.06456 8.59062 6 8.30769 6ZM3.82752 8.02284L0.814904 9.52825L3.23077 10.738L6.24339 9.23077L3.82752 8.02284ZM12.7879 8.02284L10.372 9.23077L13.3846 10.738L15.8005 9.52825L12.7879 8.02284ZM8.30769 10.262L5.29507 11.7692L8.30769 13.2764L11.3203 11.7692L8.30769 10.262Z" fill="#EEF5FF"/>
    <path d="M12 13.4928L9.23077 14.8774V24L12 22.6154V13.4928Z" fill="#86B6F6"/>
    <path d="M16.6154 11.1851L13.8462 12.5697V21.6923L15.595 20.8179C16.2208 20.505 16.6154 19.8652 16.6154 19.1665V11.1851Z" fill="#86B6F6"/>
    <path d="M90.7074 16.1928V23.0304C90.7074 23.4345 90.4488 23.6931 90.0285 23.6931C89.6244 23.6931 89.3658 23.4345 89.3658 23.0304V10.503C89.3658 10.2282 89.3011 10.018 89.1233 9.84024C88.8323 9.54928 88.8485 9.19366 89.1556 8.91887C89.4789 8.64407 89.8184 8.64407 90.0932 8.98353L90.3195 9.25832C90.6104 9.59777 90.7074 10.0019 90.7074 10.503V15.0613L92.9866 15.0128C93.326 15.0128 93.5523 15.223 93.5523 15.5624C93.5523 15.9019 93.326 16.1443 92.9866 16.1443L90.7074 16.1928ZM84.5165 15.7564L87.2806 18.181C87.5554 18.4235 87.5877 18.7791 87.3452 19.0701C87.1189 19.361 86.7633 19.3934 86.4885 19.1509L83.6759 16.6778C82.8354 17.5345 81.8978 18.4073 80.8956 19.2156C80.5885 19.4419 80.2167 19.3934 79.9743 19.1024C79.7318 18.8115 79.7803 18.472 80.0874 18.2457C82.3504 16.5 84.3063 14.1238 85.0176 13.0246L82.1726 13.1539C81.9625 13.1701 81.72 13.1701 81.4614 13.1054L81.0411 12.9923C80.7178 12.9115 80.5724 12.6205 80.6693 12.2811C80.7502 11.9578 81.025 11.8123 81.3482 11.8931L81.6715 11.9739C81.817 12.0063 81.9787 12.0224 82.1565 12.0224L85.7126 11.8608C86.5208 11.8285 86.8926 12.3619 86.5208 13.0085C86.0844 13.8167 85.3893 14.7542 84.5165 15.7564Z" fill="#EEF5FF"/>
    <path d="M71.1825 21.1068C71.1825 19.6358 72.4433 18.2134 74.4477 18.2134C76.4521 18.2134 77.7129 19.6358 77.7129 21.1068C77.7129 22.5778 76.4359 24.0002 74.4477 24.0002C72.4595 24.0002 71.1825 22.5778 71.1825 21.1068ZM77.7775 14.4309V17.9547C77.7775 18.3589 77.5189 18.6175 77.0986 18.6175C76.6945 18.6175 76.4359 18.3589 76.4359 17.9547V10.503C76.4359 10.2282 76.3713 10.018 76.1934 9.84024C75.9025 9.54928 75.9187 9.19366 76.2258 8.91887C76.5491 8.64407 76.8885 8.64407 77.1633 8.98353L77.3896 9.25832C77.6806 9.59777 77.7775 10.0019 77.7775 10.503V13.2994L80.0567 13.2509C80.3962 13.2509 80.6225 13.4611 80.6225 13.8005C80.6225 14.14 80.3962 14.3824 80.0567 14.3824L77.7775 14.4309ZM71.5381 12.8468L74.577 15.9504C74.8518 16.2413 74.7548 16.6131 74.4639 16.8394C74.1244 17.1142 73.8819 17.0334 73.5587 16.7101L70.9239 14.0268C70.3096 15.0128 69.4691 16.015 68.4669 16.9526C68.1759 17.2112 67.8688 17.2273 67.5617 16.9687C67.2707 16.7263 67.303 16.3383 67.5455 16.0958C69.3883 14.2369 70.5036 12.7498 70.6652 11.2627C70.6814 11.1657 70.6652 11.0849 70.6167 10.9556C70.4551 10.5676 70.5198 10.2443 70.8107 10.0827C71.1987 9.90489 71.5219 9.92106 71.7321 10.2443C71.9099 10.5353 71.9745 10.8748 71.9584 11.198C71.9422 11.6991 71.7806 12.2649 71.5381 12.8468ZM72.4918 21.1068C72.4918 22.0443 73.2515 22.8687 74.4477 22.8687C75.6439 22.8687 76.4036 22.0443 76.4036 21.1068C76.4036 20.1693 75.6439 19.3449 74.4477 19.3449C73.2515 19.3449 72.4918 20.1693 72.4918 21.1068Z" fill="#EEF5FF"/>
    <path d="M62.2779 13.6876L66.3675 16.2415C66.6908 16.4355 66.7555 16.7749 66.5615 17.0821C66.3513 17.4054 65.9957 17.4862 65.6724 17.2922L61.5344 14.7221C60.7423 15.6758 59.5946 16.6133 58.0267 17.4538C57.6872 17.6317 57.3316 17.5347 57.1215 17.2114C56.9114 16.8719 56.9922 16.5486 57.3316 16.3708C60.322 14.7544 61.5182 12.9117 61.6637 11.6024C61.6798 11.5054 61.6798 11.4245 61.6798 11.3437C61.6313 10.8426 61.696 10.6487 61.987 10.5193C62.3587 10.3577 62.7305 10.4708 62.8598 10.7941C62.973 11.0689 63.0053 11.3276 62.973 11.6024C62.9083 12.2651 62.682 12.9763 62.2779 13.6876ZM55.2949 21.107C55.2949 20.7675 55.5051 20.5412 55.8445 20.5251L68.1779 20.2664C68.5174 20.2503 68.7598 20.4766 68.776 20.8322C68.776 21.1717 68.5659 21.398 68.2264 21.4141L55.893 21.6566C55.5536 21.6727 55.3111 21.4464 55.2949 21.107Z" fill="#EEF5FF"/>
    <path d="M46.9705 18.6657L43.7538 18.7303C43.4305 18.7465 43.188 18.5202 43.1719 18.1807C43.1719 17.8574 43.382 17.6311 43.7053 17.615L56.0549 17.3564C56.3943 17.3402 56.6368 17.5665 56.6529 17.9059C56.6529 18.2454 56.4428 18.4717 56.1034 18.4879L52.9028 18.5525V23.1109C52.9028 23.515 52.6442 23.7736 52.2239 23.7736C51.8198 23.7736 51.5612 23.515 51.5612 23.1109V18.5848L48.3121 18.6495V23.1109C48.3121 23.515 48.0535 23.7736 47.6332 23.7736C47.2291 23.7736 46.9705 23.515 46.9705 23.1109V18.6657ZM47.4069 14.5761L53.5494 14.4468C53.905 14.4468 54.1475 14.6569 54.1636 15.0125C54.1636 15.3681 53.9535 15.6106 53.5979 15.6106L47.0028 15.7561C46.4209 15.7722 46.033 15.3843 46.033 14.8024V10.6643C46.033 10.2602 46.3078 9.96924 46.7119 9.96924H46.728C47.1321 9.96924 47.4069 10.2279 47.4069 10.632V14.5761Z" fill="#EEF5FF"/>
    <path d="M31.0332 13.849C31.0332 11.8769 32.4718 10.5191 34.4277 10.5191C36.3836 10.5191 37.8061 11.8769 37.8061 13.849C37.8061 15.8534 36.3836 17.2112 34.4277 17.2112C32.4718 17.2112 31.0332 15.8534 31.0332 13.849ZM40.8611 14.2854L38.6466 14.3178C38.3072 14.3178 38.0809 14.1076 38.0809 13.7682C38.0809 13.4287 38.3072 13.1863 38.6466 13.1863L40.8611 13.1539V10.503C40.8611 10.2282 40.7965 10.018 40.6187 9.84024C40.3277 9.54928 40.3439 9.19366 40.651 8.91887C40.9743 8.64407 41.3137 8.64407 41.5885 8.98353L41.8148 9.25832C42.1058 9.59777 42.2028 10.0019 42.2028 10.503V17.2112C42.2028 17.6153 41.9441 17.8739 41.5239 17.8739C41.1198 17.8739 40.8611 17.6153 40.8611 17.2112V14.2854ZM34.4277 16.0635C35.6562 16.0635 36.4806 15.1421 36.4806 13.849C36.4806 12.5882 35.6562 11.6668 34.4277 11.6668C33.1992 11.6668 32.3748 12.5882 32.3748 13.849C32.3748 15.1421 33.1992 16.0635 34.4277 16.0635ZM40.8773 19.7328L34.9773 19.8945C34.654 19.9106 34.4277 19.7167 34.4116 19.3772C34.3954 19.0378 34.6055 18.8115 34.945 18.7953L41.2814 18.6013C41.8472 18.5852 42.2189 18.9569 42.2189 19.5227V23.2082C42.2189 23.5961 41.9603 23.8709 41.54 23.8709C41.1521 23.8709 40.8773 23.5961 40.8773 23.2082V19.7328Z" fill="#B4D4FF"/>
    <path d="M24.2789 13.041L21.046 13.1541C20.7874 13.1703 20.5611 13.1541 20.3995 13.1218L19.8499 12.9925C19.5266 12.8955 19.365 12.6207 19.4619 12.2812C19.5428 11.958 19.8337 11.7802 20.157 11.861L20.7066 11.9903C20.8521 12.0226 21.0137 12.0388 21.143 12.0388L25.0063 11.8771C25.6044 11.8448 25.9277 12.2328 25.766 12.7662C25.0386 14.9969 22.8403 17.8418 20.1732 19.9755C19.8499 20.2179 19.5266 20.1533 19.268 19.8462C19.0255 19.5552 19.074 19.2158 19.3973 18.9733C21.3532 17.5185 23.6485 14.8029 24.2789 13.041ZM28.7403 23.0305V10.5032C28.7403 10.2122 28.6595 10.0182 28.4978 9.82427C28.223 9.50098 28.223 9.17769 28.4978 8.91906C28.8373 8.6281 29.1929 8.69276 29.4192 8.95139L29.694 9.25851C29.9849 9.59796 30.0819 10.0021 30.0819 10.5032V23.0305C30.0819 23.4347 29.8233 23.6933 29.403 23.6933C28.9989 23.6933 28.7403 23.4347 28.7403 23.0305Z" fill="#B4D4FF"/>
  </g>
  <defs>
    <clipPath id="logo">
      <rect width="93.55" height="30" fill="white"/>
    </clipPath>
  </defs>
</svg>
